<svg width="151" height="151" viewBox="0 0 151 151" fill="none" xmlns="http://www.w3.org/2000/svg">
<path d="M5.2069 0H0V5.2069H5.2069V0Z" fill="black"/>
<path d="M10.4138 0H5.2069V5.2069H10.4138V0Z" fill="black"/>
<path d="M15.6207 0H10.4138V5.2069H15.6207V0Z" fill="black"/>
<path d="M20.8276 0H15.6207V5.2069H20.8276V0Z" fill="black"/>
<path d="M26.0345 0H20.8276V5.2069H26.0345V0Z" fill="black"/>
<path d="M31.2414 0H26.0345V5.2069H31.2414V0Z" fill="black"/>
<path d="M36.4483 0H31.2414V5.2069H36.4483V0Z" fill="black"/>
<path d="M46.8621 0H41.6552V5.2069H46.8621V0Z" fill="black"/>
<path d="M52.069 0H46.8621V5.2069H52.069V0Z" fill="black"/>
<path d="M67.6897 0H62.4828V5.2069H67.6897V0Z" fill="black"/>
<path d="M72.8966 0H67.6897V5.2069H72.8966V0Z" fill="black"/>
<path d="M83.3103 0H78.1034V5.2069H83.3103V0Z" fill="black"/>
<path d="M98.931 0H93.7241V5.2069H98.931V0Z" fill="black"/>
<path d="M119.759 0H114.552V5.2069H119.759V0Z" fill="black"/>
<path d="M124.966 0H119.759V5.2069H124.966V0Z" fill="black"/>
<path d="M130.172 0H124.966V5.2069H130.172V0Z" fill="black"/>
<path d="M135.379 0H130.172V5.2069H135.379V0Z" fill="black"/>
<path d="M140.586 0H135.379V5.2069H140.586V0Z" fill="black"/>
<path d="M145.793 0H140.586V5.2069H145.793V0Z" fill="black"/>
<path d="M151 0H145.793V5.2069H151V0Z" fill="black"/>
<path d="M5.2069 5.2069H0V10.4138H5.2069V5.2069Z" fill="black"/>
<path d="M36.4483 5.2069H31.2414V10.4138H36.4483V5.2069Z" fill="black"/>
<path d="M52.069 5.2069H46.8621V10.4138H52.069V5.2069Z" fill="black"/>
<path d="M72.8966 5.2069H67.6897V10.4138H72.8966V5.2069Z" fill="black"/>
<path d="M78.1034 5.2069H72.8966V10.4138H78.1034V5.2069Z" fill="black"/>
<path d="M83.3103 5.2069H78.1034V10.4138H83.3103V5.2069Z" fill="black"/>
<path d="M88.5172 5.2069H83.3103V10.4138H88.5172V5.2069Z" fill="black"/>
<path d="M109.345 5.2069H104.138V10.4138H109.345V5.2069Z" fill="black"/>
<path d="M119.759 5.2069H114.552V10.4138H119.759V5.2069Z" fill="black"/>
<path d="M151 5.2069H145.793V10.4138H151V5.2069Z" fill="black"/>
<path d="M5.2069 10.4138H0V15.6207H5.2069V10.4138Z" fill="black"/>
<path d="M15.6207 10.4138H10.4138V15.6207H15.6207V10.4138Z" fill="black"/>
<path d="M20.8276 10.4138H15.6207V15.6207H20.8276V10.4138Z" fill="black"/>
<path d="M26.0345 10.4138H20.8276V15.6207H26.0345V10.4138Z" fill="black"/>
<path d="M36.4483 10.4138H31.2414V15.6207H36.4483V10.4138Z" fill="black"/>
<path d="M46.8621 10.4138H41.6552V15.6207H46.8621V10.4138Z" fill="black"/>
<path d="M52.069 10.4138H46.8621V15.6207H52.069V10.4138Z" fill="black"/>
<path d="M57.2759 10.4138H52.069V15.6207H57.2759V10.4138Z" fill="black"/>
<path d="M72.8966 10.4138H67.6897V15.6207H72.8966V10.4138Z" fill="black"/>
<path d="M78.1034 10.4138H72.8966V15.6207H78.1034V10.4138Z" fill="black"/>
<path d="M88.5172 10.4138H83.3103V15.6207H88.5172V10.4138Z" fill="black"/>
<path d="M98.931 10.4138H93.7241V15.6207H98.931V10.4138Z" fill="black"/>
<path d="M104.138 10.4138H98.931V15.6207H104.138V10.4138Z" fill="black"/>
<path d="M109.345 10.4138H104.138V15.6207H109.345V10.4138Z" fill="black"/>
<path d="M119.759 10.4138H114.552V15.6207H119.759V10.4138Z" fill="black"/>
<path d="M130.172 10.4138H124.966V15.6207H130.172V10.4138Z" fill="black"/>
<path d="M135.379 10.4138H130.172V15.6207H135.379V10.4138Z" fill="black"/>
<path d="M140.586 10.4138H135.379V15.6207H140.586V10.4138Z" fill="black"/>
<path d="M151 10.4138H145.793V15.6207H151V10.4138Z" fill="black"/>
<path d="M5.2069 15.6207H0V20.8276H5.2069V15.6207Z" fill="black"/>
<path d="M15.6207 15.6207H10.4138V20.8276H15.6207V15.6207Z" fill="black"/>
<path d="M20.8276 15.6207H15.6207V20.8276H20.8276V15.6207Z" fill="black"/>
<path d="M26.0345 15.6207H20.8276V20.8276H26.0345V15.6207Z" fill="black"/>
<path d="M36.4483 15.6207H31.2414V20.8276H36.4483V15.6207Z" fill="black"/>
<path d="M46.8621 15.6207H41.6552V20.8276H46.8621V15.6207Z" fill="black"/>
<path d="M57.2759 15.6207H52.069V20.8276H57.2759V15.6207Z" fill="black"/>
<path d="M78.1034 15.6207H72.8966V20.8276H78.1034V15.6207Z" fill="black"/>
<path d="M88.5172 15.6207H83.3103V20.8276H88.5172V15.6207Z" fill="black"/>
<path d="M93.7241 15.6207H88.5172V20.8276H93.7241V15.6207Z" fill="black"/>
<path d="M109.345 15.6207H104.138V20.8276H109.345V15.6207Z" fill="black"/>
<path d="M119.759 15.6207H114.552V20.8276H119.759V15.6207Z" fill="black"/>
<path d="M130.172 15.6207H124.966V20.8276H130.172V15.6207Z" fill="black"/>
<path d="M135.379 15.6207H130.172V20.8276H135.379V15.6207Z" fill="black"/>
<path d="M140.586 15.6207H135.379V20.8276H140.586V15.6207Z" fill="black"/>
<path d="M151 15.6207H145.793V20.8276H151V15.6207Z" fill="black"/>
<path d="M5.2069 20.8276H0V26.0345H5.2069V20.8276Z" fill="black"/>
<path d="M15.6207 20.8276H10.4138V26.0345H15.6207V20.8276Z" fill="black"/>
<path d="M20.8276 20.8276H15.6207V26.0345H20.8276V20.8276Z" fill="black"/>
<path d="M26.0345 20.8276H20.8276V26.0345H26.0345V20.8276Z" fill="black"/>
<path d="M36.4483 20.8276H31.2414V26.0345H36.4483V20.8276Z" fill="black"/>
<path d="M52.069 20.8276H46.8621V26.0345H52.069V20.8276Z" fill="black"/>
<path d="M57.2759 20.8276H52.069V26.0345H57.2759V20.8276Z" fill="black"/>
<path d="M67.6897 20.8276H62.4828V26.0345H67.6897V20.8276Z" fill="black"/>
<path d="M72.8966 20.8276H67.6897V26.0345H72.8966V20.8276Z" fill="black"/>
<path d="M78.1034 20.8276H72.8966V26.0345H78.1034V20.8276Z" fill="black"/>
<path d="M98.931 20.8276H93.7241V26.0345H98.931V20.8276Z" fill="black"/>
<path d="M104.138 20.8276H98.931V26.0345H104.138V20.8276Z" fill="black"/>
<path d="M109.345 20.8276H104.138V26.0345H109.345V20.8276Z" fill="black"/>
<path d="M119.759 20.8276H114.552V26.0345H119.759V20.8276Z" fill="black"/>
<path d="M130.172 20.8276H124.966V26.0345H130.172V20.8276Z" fill="black"/>
<path d="M135.379 20.8276H130.172V26.0345H135.379V20.8276Z" fill="black"/>
<path d="M140.586 20.8276H135.379V26.0345H140.586V20.8276Z" fill="black"/>
<path d="M151 20.8276H145.793V26.0345H151V20.8276Z" fill="black"/>
<path d="M5.2069 26.0345H0V31.2414H5.2069V26.0345Z" fill="black"/>
<path d="M36.4483 26.0345H31.2414V31.2414H36.4483V26.0345Z" fill="black"/>
<path d="M46.8621 26.0345H41.6552V31.2414H46.8621V26.0345Z" fill="black"/>
<path d="M83.3103 26.0345H78.1034V31.2414H83.3103V26.0345Z" fill="black"/>
<path d="M93.7241 26.0345H88.5172V31.2414H93.7241V26.0345Z" fill="black"/>
<path d="M109.345 26.0345H104.138V31.2414H109.345V26.0345Z" fill="black"/>
<path d="M119.759 26.0345H114.552V31.2414H119.759V26.0345Z" fill="black"/>
<path d="M151 26.0345H145.793V31.2414H151V26.0345Z" fill="black"/>
<path d="M5.2069 31.2414H0V36.4483H5.2069V31.2414Z" fill="black"/>
<path d="M10.4138 31.2414H5.2069V36.4483H10.4138V31.2414Z" fill="black"/>
<path d="M15.6207 31.2414H10.4138V36.4483H15.6207V31.2414Z" fill="black"/>
<path d="M20.8276 31.2414H15.6207V36.4483H20.8276V31.2414Z" fill="black"/>
<path d="M26.0345 31.2414H20.8276V36.4483H26.0345V31.2414Z" fill="black"/>
<path d="M31.2414 31.2414H26.0345V36.4483H31.2414V31.2414Z" fill="black"/>
<path d="M36.4483 31.2414H31.2414V36.4483H36.4483V31.2414Z" fill="black"/>
<path d="M46.8621 31.2414H41.6552V36.4483H46.8621V31.2414Z" fill="black"/>
<path d="M57.2759 31.2414H52.069V36.4483H57.2759V31.2414Z" fill="black"/>
<path d="M67.6897 31.2414H62.4828V36.4483H67.6897V31.2414Z" fill="black"/>
<path d="M78.1034 31.2414H72.8966V36.4483H78.1034V31.2414Z" fill="black"/>
<path d="M88.5172 31.2414H83.3103V36.4483H88.5172V31.2414Z" fill="black"/>
<path d="M98.931 31.2414H93.7241V36.4483H98.931V31.2414Z" fill="black"/>
<path d="M109.345 31.2414H104.138V36.4483H109.345V31.2414Z" fill="black"/>
<path d="M119.759 31.2414H114.552V36.4483H119.759V31.2414Z" fill="black"/>
<path d="M124.966 31.2414H119.759V36.4483H124.966V31.2414Z" fill="black"/>
<path d="M130.172 31.2414H124.966V36.4483H130.172V31.2414Z" fill="black"/>
<path d="M135.379 31.2414H130.172V36.4483H135.379V31.2414Z" fill="black"/>
<path d="M140.586 31.2414H135.379V36.4483H140.586V31.2414Z" fill="black"/>
<path d="M145.793 31.2414H140.586V36.4483H145.793V31.2414Z" fill="black"/>
<path d="M151 31.2414H145.793V36.4483H151V31.2414Z" fill="black"/>
<path d="M46.8621 36.4483H41.6552V41.6552H46.8621V36.4483Z" fill="black"/>
<path d="M57.2759 36.4483H52.069V41.6552H57.2759V36.4483Z" fill="black"/>
<path d="M62.4828 36.4483H57.2759V41.6552H62.4828V36.4483Z" fill="black"/>
<path d="M67.6897 36.4483H62.4828V41.6552H67.6897V36.4483Z" fill="black"/>
<path d="M83.3103 36.4483H78.1034V41.6552H83.3103V36.4483Z" fill="black"/>
<path d="M88.5172 36.4483H83.3103V41.6552H88.5172V36.4483Z" fill="black"/>
<path d="M104.138 36.4483H98.931V41.6552H104.138V36.4483Z" fill="black"/>
<path d="M5.2069 41.6552H0V46.8621H5.2069V41.6552Z" fill="black"/>
<path d="M10.4138 41.6552H5.2069V46.8621H10.4138V41.6552Z" fill="black"/>
<path d="M20.8276 41.6552H15.6207V46.8621H20.8276V41.6552Z" fill="black"/>
<path d="M36.4483 41.6552H31.2414V46.8621H36.4483V41.6552Z" fill="black"/>
<path d="M41.6552 41.6552H36.4483V46.8621H41.6552V41.6552Z" fill="black"/>
<path d="M52.069 41.6552H46.8621V46.8621H52.069V41.6552Z" fill="black"/>
<path d="M57.2759 41.6552H52.069V46.8621H57.2759V41.6552Z" fill="black"/>
<path d="M62.4828 41.6552H57.2759V46.8621H62.4828V41.6552Z" fill="black"/>
<path d="M78.1034 41.6552H72.8966V46.8621H78.1034V41.6552Z" fill="black"/>
<path d="M104.138 41.6552H98.931V46.8621H104.138V41.6552Z" fill="black"/>
<path d="M114.552 41.6552H109.345V46.8621H114.552V41.6552Z" fill="black"/>
<path d="M119.759 41.6552H114.552V46.8621H119.759V41.6552Z" fill="black"/>
<path d="M124.966 41.6552H119.759V46.8621H124.966V41.6552Z" fill="black"/>
<path d="M135.379 41.6552H130.172V46.8621H135.379V41.6552Z" fill="black"/>
<path d="M140.586 41.6552H135.379V46.8621H140.586V41.6552Z" fill="black"/>
<path d="M151 41.6552H145.793V46.8621H151V41.6552Z" fill="black"/>
<path d="M5.2069 46.8621H0V52.069H5.2069V46.8621Z" fill="black"/>
<path d="M26.0345 46.8621H20.8276V52.069H26.0345V46.8621Z" fill="black"/>
<path d="M41.6552 46.8621H36.4483V52.069H41.6552V46.8621Z" fill="black"/>
<path d="M46.8621 46.8621H41.6552V52.069H46.8621V46.8621Z" fill="black"/>
<path d="M78.1034 46.8621H72.8966V52.069H78.1034V46.8621Z" fill="black"/>
<path d="M88.5172 46.8621H83.3103V52.069H88.5172V46.8621Z" fill="black"/>
<path d="M93.7241 46.8621H88.5172V52.069H93.7241V46.8621Z" fill="black"/>
<path d="M124.966 46.8621H119.759V52.069H124.966V46.8621Z" fill="black"/>
<path d="M130.172 46.8621H124.966V52.069H130.172V46.8621Z" fill="black"/>
<path d="M135.379 46.8621H130.172V52.069H135.379V46.8621Z" fill="black"/>
<path d="M140.586 46.8621H135.379V52.069H140.586V46.8621Z" fill="black"/>
<path d="M151 46.8621H145.793V52.069H151V46.8621Z" fill="black"/>
<path d="M20.8276 52.069H15.6207V57.2759H20.8276V52.069Z" fill="black"/>
<path d="M31.2414 52.069H26.0345V57.2759H31.2414V52.069Z" fill="black"/>
<path d="M36.4483 52.069H31.2414V57.2759H36.4483V52.069Z" fill="black"/>
<path d="M46.8621 52.069H41.6552V57.2759H46.8621V52.069Z" fill="black"/>
<path d="M52.069 52.069H46.8621V57.2759H52.069V52.069Z" fill="black"/>
<path d="M57.2759 52.069H52.069V57.2759H57.2759V52.069Z" fill="black"/>
<path d="M62.4828 52.069H57.2759V57.2759H62.4828V52.069Z" fill="black"/>
<path d="M67.6897 52.069H62.4828V57.2759H67.6897V52.069Z" fill="black"/>
<path d="M72.8966 52.069H67.6897V57.2759H72.8966V52.069Z" fill="black"/>
<path d="M78.1034 52.069H72.8966V57.2759H78.1034V52.069Z" fill="black"/>
<path d="M83.3103 52.069H78.1034V57.2759H83.3103V52.069Z" fill="black"/>
<path d="M93.7241 52.069H88.5172V57.2759H93.7241V52.069Z" fill="black"/>
<path d="M104.138 52.069H98.931V57.2759H104.138V52.069Z" fill="black"/>
<path d="M109.345 52.069H104.138V57.2759H109.345V52.069Z" fill="black"/>
<path d="M130.172 52.069H124.966V57.2759H130.172V52.069Z" fill="black"/>
<path d="M135.379 52.069H130.172V57.2759H135.379V52.069Z" fill="black"/>
<path d="M140.586 52.069H135.379V57.2759H140.586V52.069Z" fill="black"/>
<path d="M151 52.069H145.793V57.2759H151V52.069Z" fill="black"/>
<path d="M10.4138 57.2759H5.2069V62.4828H10.4138V57.2759Z" fill="black"/>
<path d="M26.0345 57.2759H20.8276V62.4828H26.0345V57.2759Z" fill="black"/>
<path d="M31.2414 57.2759H26.0345V62.4828H31.2414V57.2759Z" fill="black"/>
<path d="M41.6552 57.2759H36.4483V62.4828H41.6552V57.2759Z" fill="black"/>
<path d="M46.8621 57.2759H41.6552V62.4828H46.8621V57.2759Z" fill="black"/>
<path d="M83.3103 57.2759H78.1034V62.4828H83.3103V57.2759Z" fill="black"/>
<path d="M88.5172 57.2759H83.3103V62.4828H88.5172V57.2759Z" fill="black"/>
<path d="M93.7241 57.2759H88.5172V62.4828H93.7241V57.2759Z" fill="black"/>
<path d="M104.138 57.2759H98.931V62.4828H104.138V57.2759Z" fill="black"/>
<path d="M109.345 57.2759H104.138V62.4828H109.345V57.2759Z" fill="black"/>
<path d="M124.966 57.2759H119.759V62.4828H124.966V57.2759Z" fill="black"/>
<path d="M145.793 57.2759H140.586V62.4828H145.793V57.2759Z" fill="black"/>
<path d="M151 57.2759H145.793V62.4828H151V57.2759Z" fill="black"/>
<path d="M5.2069 62.4828H0V67.6897H5.2069V62.4828Z" fill="black"/>
<path d="M10.4138 62.4828H5.2069V67.6897H10.4138V62.4828Z" fill="black"/>
<path d="M15.6207 62.4828H10.4138V67.6897H15.6207V62.4828Z" fill="black"/>
<path d="M20.8276 62.4828H15.6207V67.6897H20.8276V62.4828Z" fill="black"/>
<path d="M26.0345 62.4828H20.8276V67.6897H26.0345V62.4828Z" fill="black"/>
<path d="M36.4483 62.4828H31.2414V67.6897H36.4483V62.4828Z" fill="black"/>
<path d="M41.6552 62.4828H36.4483V67.6897H41.6552V62.4828Z" fill="black"/>
<path d="M46.8621 62.4828H41.6552V67.6897H46.8621V62.4828Z" fill="black"/>
<path d="M57.2759 62.4828H52.069V67.6897H57.2759V62.4828Z" fill="black"/>
<path d="M62.4828 62.4828H57.2759V67.6897H62.4828V62.4828Z" fill="black"/>
<path d="M67.6897 62.4828H62.4828V67.6897H67.6897V62.4828Z" fill="black"/>
<path d="M78.1034 62.4828H72.8966V67.6897H78.1034V62.4828Z" fill="black"/>
<path d="M88.5172 62.4828H83.3103V67.6897H88.5172V62.4828Z" fill="black"/>
<path d="M93.7241 62.4828H88.5172V67.6897H93.7241V62.4828Z" fill="black"/>
<path d="M98.931 62.4828H93.7241V67.6897H98.931V62.4828Z" fill="black"/>
<path d="M114.552 62.4828H109.345V67.6897H114.552V62.4828Z" fill="black"/>
<path d="M140.586 62.4828H135.379V67.6897H140.586V62.4828Z" fill="black"/>
<path d="M5.2069 67.6897H0V72.8966H5.2069V67.6897Z" fill="black"/>
<path d="M10.4138 67.6897H5.2069V72.8966H10.4138V67.6897Z" fill="black"/>
<path d="M31.2414 67.6897H26.0345V72.8966H31.2414V67.6897Z" fill="black"/>
<path d="M46.8621 67.6897H41.6552V72.8966H46.8621V67.6897Z" fill="black"/>
<path d="M52.069 67.6897H46.8621V72.8966H52.069V67.6897Z" fill="black"/>
<path d="M57.2759 67.6897H52.069V72.8966H57.2759V67.6897Z" fill="black"/>
<path d="M78.1034 67.6897H72.8966V72.8966H78.1034V67.6897Z" fill="black"/>
<path d="M98.931 67.6897H93.7241V72.8966H98.931V67.6897Z" fill="black"/>
<path d="M104.138 67.6897H98.931V72.8966H104.138V67.6897Z" fill="black"/>
<path d="M109.345 67.6897H104.138V72.8966H109.345V67.6897Z" fill="black"/>
<path d="M124.966 67.6897H119.759V72.8966H124.966V67.6897Z" fill="black"/>
<path d="M140.586 67.6897H135.379V72.8966H140.586V67.6897Z" fill="black"/>
<path d="M20.8276 72.8966H15.6207V78.1034H20.8276V72.8966Z" fill="black"/>
<path d="M26.0345 72.8966H20.8276V78.1034H26.0345V72.8966Z" fill="black"/>
<path d="M36.4483 72.8966H31.2414V78.1034H36.4483V72.8966Z" fill="black"/>
<path d="M52.069 72.8966H46.8621V78.1034H52.069V72.8966Z" fill="black"/>
<path d="M67.6897 72.8966H62.4828V78.1034H67.6897V72.8966Z" fill="black"/>
<path d="M72.8966 72.8966H67.6897V78.1034H72.8966V72.8966Z" fill="black"/>
<path d="M83.3103 72.8966H78.1034V78.1034H83.3103V72.8966Z" fill="black"/>
<path d="M88.5172 72.8966H83.3103V78.1034H88.5172V72.8966Z" fill="black"/>
<path d="M93.7241 72.8966H88.5172V78.1034H93.7241V72.8966Z" fill="black"/>
<path d="M98.931 72.8966H93.7241V78.1034H98.931V72.8966Z" fill="black"/>
<path d="M104.138 72.8966H98.931V78.1034H104.138V72.8966Z" fill="black"/>
<path d="M109.345 72.8966H104.138V78.1034H109.345V72.8966Z" fill="black"/>
<path d="M119.759 72.8966H114.552V78.1034H119.759V72.8966Z" fill="black"/>
<path d="M124.966 72.8966H119.759V78.1034H124.966V72.8966Z" fill="black"/>
<path d="M145.793 72.8966H140.586V78.1034H145.793V72.8966Z" fill="black"/>
<path d="M151 72.8966H145.793V78.1034H151V72.8966Z" fill="black"/>
<path d="M5.2069 78.1034H0V83.3103H5.2069V78.1034Z" fill="black"/>
<path d="M15.6207 78.1034H10.4138V83.3103H15.6207V78.1034Z" fill="black"/>
<path d="M20.8276 78.1034H15.6207V83.3103H20.8276V78.1034Z" fill="black"/>
<path d="M26.0345 78.1034H20.8276V83.3103H26.0345V78.1034Z" fill="black"/>
<path d="M62.4828 78.1034H57.2759V83.3103H62.4828V78.1034Z" fill="black"/>
<path d="M72.8966 78.1034H67.6897V83.3103H72.8966V78.1034Z" fill="black"/>
<path d="M83.3103 78.1034H78.1034V83.3103H83.3103V78.1034Z" fill="black"/>
<path d="M93.7241 78.1034H88.5172V83.3103H93.7241V78.1034Z" fill="black"/>
<path d="M98.931 78.1034H93.7241V83.3103H98.931V78.1034Z" fill="black"/>
<path d="M130.172 78.1034H124.966V83.3103H130.172V78.1034Z" fill="black"/>
<path d="M135.379 78.1034H130.172V83.3103H135.379V78.1034Z" fill="black"/>
<path d="M145.793 78.1034H140.586V83.3103H145.793V78.1034Z" fill="black"/>
<path d="M26.0345 83.3103H20.8276V88.5172H26.0345V83.3103Z" fill="black"/>
<path d="M36.4483 83.3103H31.2414V88.5172H36.4483V83.3103Z" fill="black"/>
<path d="M41.6552 83.3103H36.4483V88.5172H41.6552V83.3103Z" fill="black"/>
<path d="M52.069 83.3103H46.8621V88.5172H52.069V83.3103Z" fill="black"/>
<path d="M57.2759 83.3103H52.069V88.5172H57.2759V83.3103Z" fill="black"/>
<path d="M72.8966 83.3103H67.6897V88.5172H72.8966V83.3103Z" fill="black"/>
<path d="M78.1034 83.3103H72.8966V88.5172H78.1034V83.3103Z" fill="black"/>
<path d="M93.7241 83.3103H88.5172V88.5172H93.7241V83.3103Z" fill="black"/>
<path d="M98.931 83.3103H93.7241V88.5172H98.931V83.3103Z" fill="black"/>
<path d="M104.138 83.3103H98.931V88.5172H104.138V83.3103Z" fill="black"/>
<path d="M114.552 83.3103H109.345V88.5172H114.552V83.3103Z" fill="black"/>
<path d="M119.759 83.3103H114.552V88.5172H119.759V83.3103Z" fill="black"/>
<path d="M130.172 83.3103H124.966V88.5172H130.172V83.3103Z" fill="black"/>
<path d="M135.379 83.3103H130.172V88.5172H135.379V83.3103Z" fill="black"/>
<path d="M145.793 83.3103H140.586V88.5172H145.793V83.3103Z" fill="black"/>
<path d="M151 83.3103H145.793V88.5172H151V83.3103Z" fill="black"/>
<path d="M10.4138 88.5172H5.2069V93.7241H10.4138V88.5172Z" fill="black"/>
<path d="M20.8276 88.5172H15.6207V93.7241H20.8276V88.5172Z" fill="black"/>
<path d="M26.0345 88.5172H20.8276V93.7241H26.0345V88.5172Z" fill="black"/>
<path d="M31.2414 88.5172H26.0345V93.7241H31.2414V88.5172Z" fill="black"/>
<path d="M41.6552 88.5172H36.4483V93.7241H41.6552V88.5172Z" fill="black"/>
<path d="M46.8621 88.5172H41.6552V93.7241H46.8621V88.5172Z" fill="black"/>
<path d="M57.2759 88.5172H52.069V93.7241H57.2759V88.5172Z" fill="black"/>
<path d="M67.6897 88.5172H62.4828V93.7241H67.6897V88.5172Z" fill="black"/>
<path d="M72.8966 88.5172H67.6897V93.7241H72.8966V88.5172Z" fill="black"/>
<path d="M104.138 88.5172H98.931V93.7241H104.138V88.5172Z" fill="black"/>
<path d="M109.345 88.5172H104.138V93.7241H109.345V88.5172Z" fill="black"/>
<path d="M119.759 88.5172H114.552V93.7241H119.759V88.5172Z" fill="black"/>
<path d="M130.172 88.5172H124.966V93.7241H130.172V88.5172Z" fill="black"/>
<path d="M135.379 88.5172H130.172V93.7241H135.379V88.5172Z" fill="black"/>
<path d="M5.2069 93.7241H0V98.931H5.2069V93.7241Z" fill="black"/>
<path d="M26.0345 93.7241H20.8276V98.931H26.0345V93.7241Z" fill="black"/>
<path d="M31.2414 93.7241H26.0345V98.931H31.2414V93.7241Z" fill="black"/>
<path d="M36.4483 93.7241H31.2414V98.931H36.4483V93.7241Z" fill="black"/>
<path d="M46.8621 93.7241H41.6552V98.931H46.8621V93.7241Z" fill="black"/>
<path d="M52.069 93.7241H46.8621V98.931H52.069V93.7241Z" fill="black"/>
<path d="M57.2759 93.7241H52.069V98.931H57.2759V93.7241Z" fill="black"/>
<path d="M62.4828 93.7241H57.2759V98.931H62.4828V93.7241Z" fill="black"/>
<path d="M72.8966 93.7241H67.6897V98.931H72.8966V93.7241Z" fill="black"/>
<path d="M78.1034 93.7241H72.8966V98.931H78.1034V93.7241Z" fill="black"/>
<path d="M88.5172 93.7241H83.3103V98.931H88.5172V93.7241Z" fill="black"/>
<path d="M93.7241 93.7241H88.5172V98.931H93.7241V93.7241Z" fill="black"/>
<path d="M104.138 93.7241H98.931V98.931H104.138V93.7241Z" fill="black"/>
<path d="M109.345 93.7241H104.138V98.931H109.345V93.7241Z" fill="black"/>
<path d="M119.759 93.7241H114.552V98.931H119.759V93.7241Z" fill="black"/>
<path d="M124.966 93.7241H119.759V98.931H124.966V93.7241Z" fill="black"/>
<path d="M135.379 93.7241H130.172V98.931H135.379V93.7241Z" fill="black"/>
<path d="M140.586 93.7241H135.379V98.931H140.586V93.7241Z" fill="black"/>
<path d="M151 93.7241H145.793V98.931H151V93.7241Z" fill="black"/>
<path d="M5.2069 98.931H0V104.138H5.2069V98.931Z" fill="black"/>
<path d="M15.6207 98.931H10.4138V104.138H15.6207V98.931Z" fill="black"/>
<path d="M26.0345 98.931H20.8276V104.138H26.0345V98.931Z" fill="black"/>
<path d="M31.2414 98.931H26.0345V104.138H31.2414V98.931Z" fill="black"/>
<path d="M52.069 98.931H46.8621V104.138H52.069V98.931Z" fill="black"/>
<path d="M67.6897 98.931H62.4828V104.138H67.6897V98.931Z" fill="black"/>
<path d="M72.8966 98.931H67.6897V104.138H72.8966V98.931Z" fill="black"/>
<path d="M78.1034 98.931H72.8966V104.138H78.1034V98.931Z" fill="black"/>
<path d="M83.3103 98.931H78.1034V104.138H83.3103V98.931Z" fill="black"/>
<path d="M104.138 98.931H98.931V104.138H104.138V98.931Z" fill="black"/>
<path d="M109.345 98.931H104.138V104.138H109.345V98.931Z" fill="black"/>
<path d="M114.552 98.931H109.345V104.138H114.552V98.931Z" fill="black"/>
<path d="M119.759 98.931H114.552V104.138H119.759V98.931Z" fill="black"/>
<path d="M135.379 98.931H130.172V104.138H135.379V98.931Z" fill="black"/>
<path d="M151 98.931H145.793V104.138H151V98.931Z" fill="black"/>
<path d="M15.6207 104.138H10.4138V109.345H15.6207V104.138Z" fill="black"/>
<path d="M36.4483 104.138H31.2414V109.345H36.4483V104.138Z" fill="black"/>
<path d="M41.6552 104.138H36.4483V109.345H41.6552V104.138Z" fill="black"/>
<path d="M52.069 104.138H46.8621V109.345H52.069V104.138Z" fill="black"/>
<path d="M62.4828 104.138H57.2759V109.345H62.4828V104.138Z" fill="black"/>
<path d="M83.3103 104.138H78.1034V109.345H83.3103V104.138Z" fill="black"/>
<path d="M93.7241 104.138H88.5172V109.345H93.7241V104.138Z" fill="black"/>
<path d="M98.931 104.138H93.7241V109.345H98.931V104.138Z" fill="black"/>
<path d="M109.345 104.138H104.138V109.345H109.345V104.138Z" fill="black"/>
<path d="M114.552 104.138H109.345V109.345H114.552V104.138Z" fill="black"/>
<path d="M119.759 104.138H114.552V109.345H119.759V104.138Z" fill="black"/>
<path d="M124.966 104.138H119.759V109.345H124.966V104.138Z" fill="black"/>
<path d="M130.172 104.138H124.966V109.345H130.172V104.138Z" fill="black"/>
<path d="M145.793 104.138H140.586V109.345H145.793V104.138Z" fill="black"/>
<path d="M151 104.138H145.793V109.345H151V104.138Z" fill="black"/>
<path d="M78.1034 109.345H72.8966V114.552H78.1034V109.345Z" fill="black"/>
<path d="M88.5172 109.345H83.3103V114.552H88.5172V109.345Z" fill="black"/>
<path d="M98.931 109.345H93.7241V114.552H98.931V109.345Z" fill="black"/>
<path d="M109.345 109.345H104.138V114.552H109.345V109.345Z" fill="black"/>
<path d="M130.172 109.345H124.966V114.552H130.172V109.345Z" fill="black"/>
<path d="M135.379 109.345H130.172V114.552H135.379V109.345Z" fill="black"/>
<path d="M140.586 109.345H135.379V114.552H140.586V109.345Z" fill="black"/>
<path d="M151 109.345H145.793V114.552H151V109.345Z" fill="black"/>
<path d="M5.2069 114.552H0V119.759H5.2069V114.552Z" fill="black"/>
<path d="M10.4138 114.552H5.2069V119.759H10.4138V114.552Z" fill="black"/>
<path d="M15.6207 114.552H10.4138V119.759H15.6207V114.552Z" fill="black"/>
<path d="M20.8276 114.552H15.6207V119.759H20.8276V114.552Z" fill="black"/>
<path d="M26.0345 114.552H20.8276V119.759H26.0345V114.552Z" fill="black"/>
<path d="M31.2414 114.552H26.0345V119.759H31.2414V114.552Z" fill="black"/>
<path d="M36.4483 114.552H31.2414V119.759H36.4483V114.552Z" fill="black"/>
<path d="M46.8621 114.552H41.6552V119.759H46.8621V114.552Z" fill="black"/>
<path d="M52.069 114.552H46.8621V119.759H52.069V114.552Z" fill="black"/>
<path d="M72.8966 114.552H67.6897V119.759H72.8966V114.552Z" fill="black"/>
<path d="M83.3103 114.552H78.1034V119.759H83.3103V114.552Z" fill="black"/>
<path d="M98.931 114.552H93.7241V119.759H98.931V114.552Z" fill="black"/>
<path d="M109.345 114.552H104.138V119.759H109.345V114.552Z" fill="black"/>
<path d="M119.759 114.552H114.552V119.759H119.759V114.552Z" fill="black"/>
<path d="M130.172 114.552H124.966V119.759H130.172V114.552Z" fill="black"/>
<path d="M5.2069 119.759H0V124.966H5.2069V119.759Z" fill="black"/>
<path d="M36.4483 119.759H31.2414V124.966H36.4483V119.759Z" fill="black"/>
<path d="M52.069 119.759H46.8621V124.966H52.069V119.759Z" fill="black"/>
<path d="M62.4828 119.759H57.2759V124.966H62.4828V119.759Z" fill="black"/>
<path d="M83.3103 119.759H78.1034V124.966H83.3103V119.759Z" fill="black"/>
<path d="M93.7241 119.759H88.5172V124.966H93.7241V119.759Z" fill="black"/>
<path d="M109.345 119.759H104.138V124.966H109.345V119.759Z" fill="black"/>
<path d="M130.172 119.759H124.966V124.966H130.172V119.759Z" fill="black"/>
<path d="M135.379 119.759H130.172V124.966H135.379V119.759Z" fill="black"/>
<path d="M140.586 119.759H135.379V124.966H140.586V119.759Z" fill="black"/>
<path d="M5.2069 124.966H0V130.172H5.2069V124.966Z" fill="black"/>
<path d="M15.6207 124.966H10.4138V130.172H15.6207V124.966Z" fill="black"/>
<path d="M20.8276 124.966H15.6207V130.172H20.8276V124.966Z" fill="black"/>
<path d="M26.0345 124.966H20.8276V130.172H26.0345V124.966Z" fill="black"/>
<path d="M36.4483 124.966H31.2414V130.172H36.4483V124.966Z" fill="black"/>
<path d="M52.069 124.966H46.8621V130.172H52.069V124.966Z" fill="black"/>
<path d="M78.1034 124.966H72.8966V130.172H78.1034V124.966Z" fill="black"/>
<path d="M83.3103 124.966H78.1034V130.172H83.3103V124.966Z" fill="black"/>
<path d="M88.5172 124.966H83.3103V130.172H88.5172V124.966Z" fill="black"/>
<path d="M104.138 124.966H98.931V130.172H104.138V124.966Z" fill="black"/>
<path d="M109.345 124.966H104.138V130.172H109.345V124.966Z" fill="black"/>
<path d="M114.552 124.966H109.345V130.172H114.552V124.966Z" fill="black"/>
<path d="M119.759 124.966H114.552V130.172H119.759V124.966Z" fill="black"/>
<path d="M124.966 124.966H119.759V130.172H124.966V124.966Z" fill="black"/>
<path d="M130.172 124.966H124.966V130.172H130.172V124.966Z" fill="black"/>
<path d="M135.379 124.966H130.172V130.172H135.379V124.966Z" fill="black"/>
<path d="M151 124.966H145.793V130.172H151V124.966Z" fill="black"/>
<path d="M5.2069 130.172H0V135.379H5.2069V130.172Z" fill="black"/>
<path d="M15.6207 130.172H10.4138V135.379H15.6207V130.172Z" fill="black"/>
<path d="M20.8276 130.172H15.6207V135.379H20.8276V130.172Z" fill="black"/>
<path d="M26.0345 130.172H20.8276V135.379H26.0345V130.172Z" fill="black"/>
<path d="M36.4483 130.172H31.2414V135.379H36.4483V130.172Z" fill="black"/>
<path d="M46.8621 130.172H41.6552V135.379H46.8621V130.172Z" fill="black"/>
<path d="M52.069 130.172H46.8621V135.379H52.069V130.172Z" fill="black"/>
<path d="M57.2759 130.172H52.069V135.379H57.2759V130.172Z" fill="black"/>
<path d="M62.4828 130.172H57.2759V135.379H62.4828V130.172Z" fill="black"/>
<path d="M78.1034 130.172H72.8966V135.379H78.1034V130.172Z" fill="black"/>
<path d="M83.3103 130.172H78.1034V135.379H83.3103V130.172Z" fill="black"/>
<path d="M104.138 130.172H98.931V135.379H104.138V130.172Z" fill="black"/>
<path d="M109.345 130.172H104.138V135.379H109.345V130.172Z" fill="black"/>
<path d="M130.172 130.172H124.966V135.379H130.172V130.172Z" fill="black"/>
<path d="M140.586 130.172H135.379V135.379H140.586V130.172Z" fill="black"/>
<path d="M145.793 130.172H140.586V135.379H145.793V130.172Z" fill="black"/>
<path d="M5.2069 135.379H0V140.586H5.2069V135.379Z" fill="black"/>
<path d="M15.6207 135.379H10.4138V140.586H15.6207V135.379Z" fill="black"/>
<path d="M20.8276 135.379H15.6207V140.586H20.8276V135.379Z" fill="black"/>
<path d="M26.0345 135.379H20.8276V140.586H26.0345V135.379Z" fill="black"/>
<path d="M36.4483 135.379H31.2414V140.586H36.4483V135.379Z" fill="black"/>
<path d="M67.6897 135.379H62.4828V140.586H67.6897V135.379Z" fill="black"/>
<path d="M72.8966 135.379H67.6897V140.586H72.8966V135.379Z" fill="black"/>
<path d="M98.931 135.379H93.7241V140.586H98.931V135.379Z" fill="black"/>
<path d="M104.138 135.379H98.931V140.586H104.138V135.379Z" fill="black"/>
<path d="M109.345 135.379H104.138V140.586H109.345V135.379Z" fill="black"/>
<path d="M114.552 135.379H109.345V140.586H114.552V135.379Z" fill="black"/>
<path d="M130.172 135.379H124.966V140.586H130.172V135.379Z" fill="black"/>
<path d="M135.379 135.379H130.172V140.586H135.379V135.379Z" fill="black"/>
<path d="M140.586 135.379H135.379V140.586H140.586V135.379Z" fill="black"/>
<path d="M5.2069 140.586H0V145.793H5.2069V140.586Z" fill="black"/>
<path d="M36.4483 140.586H31.2414V145.793H36.4483V140.586Z" fill="black"/>
<path d="M46.8621 140.586H41.6552V145.793H46.8621V140.586Z" fill="black"/>
<path d="M57.2759 140.586H52.069V145.793H57.2759V140.586Z" fill="black"/>
<path d="M78.1034 140.586H72.8966V145.793H78.1034V140.586Z" fill="black"/>
<path d="M83.3103 140.586H78.1034V145.793H83.3103V140.586Z" fill="black"/>
<path d="M88.5172 140.586H83.3103V145.793H88.5172V140.586Z" fill="black"/>
<path d="M109.345 140.586H104.138V145.793H109.345V140.586Z" fill="black"/>
<path d="M114.552 140.586H109.345V145.793H114.552V140.586Z" fill="black"/>
<path d="M119.759 140.586H114.552V145.793H119.759V140.586Z" fill="black"/>
<path d="M145.793 140.586H140.586V145.793H145.793V140.586Z" fill="black"/>
<path d="M151 140.586H145.793V145.793H151V140.586Z" fill="black"/>
<path d="M5.2069 145.793H0V151H5.2069V145.793Z" fill="black"/>
<path d="M10.4138 145.793H5.2069V151H10.4138V145.793Z" fill="black"/>
<path d="M15.6207 145.793H10.4138V151H15.6207V145.793Z" fill="black"/>
<path d="M20.8276 145.793H15.6207V151H20.8276V145.793Z" fill="black"/>
<path d="M26.0345 145.793H20.8276V151H26.0345V145.793Z" fill="black"/>
<path d="M31.2414 145.793H26.0345V151H31.2414V145.793Z" fill="black"/>
<path d="M36.4483 145.793H31.2414V151H36.4483V145.793Z" fill="black"/>
<path d="M46.8621 145.793H41.6552V151H46.8621V145.793Z" fill="black"/>
<path d="M52.069 145.793H46.8621V151H52.069V145.793Z" fill="black"/>
<path d="M67.6897 145.793H62.4828V151H67.6897V145.793Z" fill="black"/>
<path d="M72.8966 145.793H67.6897V151H72.8966V145.793Z" fill="black"/>
<path d="M78.1034 145.793H72.8966V151H78.1034V145.793Z" fill="black"/>
<path d="M83.3103 145.793H78.1034V151H83.3103V145.793Z" fill="black"/>
<path d="M104.138 145.793H98.931V151H104.138V145.793Z" fill="black"/>
<path d="M114.552 145.793H109.345V151H114.552V145.793Z" fill="black"/>
<path d="M124.966 145.793H119.759V151H124.966V145.793Z" fill="black"/>
<path d="M135.379 145.793H130.172V151H135.379V145.793Z" fill="black"/>
<path d="M140.586 145.793H135.379V151H140.586V145.793Z" fill="black"/>
</svg>
